<svg height="185" viewBox="0 0 119 185" width="119" xmlns="http://www.w3.org/2000/svg"><g fill="none" fill-rule="nonzero" transform="translate(-46 -13)"><path d="m95.1132716 160.739469c.0011238-2.02445 2.1919173-3.289762 3.9460205-2.279059l38.3056889 22.071486 21.822866-12.649191-.00616-25.159697-39.548944-22.847358c-1.753867-1.013206-1.753875-3.544846-.000014-4.558063l39.600867-22.8776834.019318-25.1530225-21.82279-12.5988104-38.4567824 22.3093917c-1.7555047 1.0183963-3.9544096-.2493271-3.9527186-2.2788405l.0358782-43.060724-21.8038649-12.5598901-21.795126 12.5248044.0353237 70.5540708c.0028822 5.756795.9954221 11.43321 2.9170265 16.807095.1962335.548779.2047728 1.147169.0242788 1.701325-1.9726532 6.056464-2.9818698 12.401641-2.9729763 18.825489l.0544823 39.352964 21.8051466 12.595411 21.7824406-12.635457zm-23.1112348 31.484676 1.3053765 2.250356 1.3093466-2.266737-.3943541-.227793c-.5816335-.211644-1.2214289-.20149-1.7959733-.002008zm-20.5453589-162.1353258-2.6310207.0013173-.0082377.0141937 1.3113629 2.2819773c.003895-.0022038.0077864-.0044171.0116735-.0066412.8135825-.4695741 1.3152562-1.3372244 1.3162901-2.2766316-.0000099-.0047404-.0000326-.0094789-.0000681-.0142155zm44.9280957 2.3342162 1.305447-2.2662452-.0004658-.002325-2.6319991-.002193-.0002933.3521027c.0936132.6370077.4097498 1.2411346.8943245 1.669243zm64.1863094 35.6248556 1.308752-2.2669304-2.625763-.0020166-.000664.8649415c.11854.349922.304803.6778695.545159.9580139zm-60.204692 112.293774c-.000521.937882-.500079 1.804628-1.3113495 2.275226l-24.4117038 14.160629c-.8717885.505703-1.9121876.454734-2.7113676-.041492l-24.3627087-14.072748c-.8129425-.469584-1.3142115-1.336634-1.3155112-2.275454l-.0565822-40.869746c-.0092493-6.680844.9949435-13.284831 2.9604015-19.610193-1.9301045-5.687619-2.9257009-11.668474-2.9287349-17.728369l-.0359852-71.8754197c-.0330812-.4437376.0443103-.894633.2320719-1.3046864.2620492-.5778862.7249304-1.0292058 1.2796237-1.2911951l24.2382698-13.9287833c.8128437-.4671094 1.8127925-.4665914 2.6251518.0013597l24.444322 14.0808979c.9510671.5478524 1.3876784 1.5421734 1.3092944 2.4997951l-.033151 39.7874352 35.817791-20.7784712c.815037-.4728158 1.82065-.4738676 2.636674-.0027577l24.460094 14.121388c.901688.5205656 1.340038 1.4424165 1.315034 2.353142l-.021597 28.1194934c-.000721.9393494-.502015 1.8071135-1.31539 2.2770057l-36.970107 21.3578764 36.942402 21.341563c.962096.555802 1.430057 1.615769 1.292073 2.635205l.006812 27.82507c.00023.938947-.499759 1.80691-1.312108 2.277772l-23.972153 13.894982c-.829752.736863-2.06166.886955-3.060876.311213l-35.732337-20.588737z" fill="#fff"/><g transform="translate(48.11296 15.37088)"><g><path d="m.70445904 14.73345 24.44466356 14.1869943 24.436448-14.1489612-24.444322-14.08089793z" fill="#1c242e"/><path d="m.38738176 15.2797847c-.42050948-.2440518-.41920815-.8517736.00234267-1.0940223l24.43678957-14.04286487c.1950824-.11210625.4350701-.11198195.6300364.00032633l24.444322 14.08089794c.4212955.2426829.4219724.8503979.0012186 1.0940188l-24.4364479 14.1489612c-.1959871.1134786-.4377264.1133554-.6335978-.0003228zm1.58016777-.54363 23.18194507 13.454148 23.173002-13.4174126-23.1816255-13.35353473z" fill="#fff"/><path d="m.71178212 14.7192568.03609172 72.0880637c.00941913 18.8133685 10.05856026 36.1915145 26.35957666 45.5840535l62.2006907 35.839629-.0523089-28.259239-37.8885554-21.987702c-16.2314902-9.419551-26.2206123-26.7681249-26.2184645-45.5348296l.0049807-43.5215111z" fill="#1c242e"/><path d="m.08010219 14.719573c-.00024394-.4872415.52790286-.7912993.94914171-.5464276l24.442011 14.2084645c.1945504.1130947.314244.3211498.3142182.5461837l-.0049807 43.5215111c-.002122 18.5415043 9.8671306 35.6818953 25.9038429 44.9884113l37.8885554 21.987703c.1943944.112812.3142045.320419.3146205.545176l.0523089 28.259239c.0009006.486542-.5254739.7914-.9470439.548494l-62.2006907-35.839629c-16.4966286-9.505249-26.66635943-27.091934-26.67589159-46.1310622zm1.26390983 1.0978635.03554174 70.9895678c.0093061 18.5876077 9.93785754 35.7572167 26.04326174 45.0370447l61.2516192 35.29278-.0496094-26.800911-37.5746068-21.80551c-16.4262681-9.532586-26.5352596-27.0893427-26.5330861-46.0812479l.0049391-43.1580108z" fill="#fff"/><path d="m49.5767943 14.7835851-.0616314 73.969523 64.2086151 37.0932089-24.4245044 14.139427-64.142334-37.294023v-73.5806543z" fill="#1c242e"/><path d="m48.9441947 15.8871172-23.1555751 13.5857105v72.8554763l63.5113432 36.927149 23.1620122-13.408567-63.2627949-36.5468095c-.1955248-.1129543-.3158851-.3216882-.315697-.5474948zm65.0955653 109.4122308c.420711.243044.420985.850228.000494 1.093652l-24.4245038 14.139427c-.1961345.113543-.4380645.113315-.6339844-.000598l-64.142334-37.294023c-.1945021-.113089-.3141722-.321096-.3141722-.546085v-73.5806543c0-.2240997.1187337-.4314238.3120213-.5448284l24.4198548-14.3274816c.4213067-.2471867.9517454.0568872.9513384.5453547l-.0613273 73.6045815z" fill="#fff"/><path d="m89.310686 168.169188 24.396572-14.140988-.006897-28.169576-24.4332761 14.144016z" fill="#1c242e"/><path d="m89.62746 168.715699c-.420743.243875-.9477005-.059221-.9484533-.545533l-.0436011-28.166548c-.0003495-.225767.1198203-.434557.3152109-.547666l24.4332765-14.144015c.42106-.243745.948029.060011.948148.546533l.006897 28.169575c.000055.225347-.119942.433659-.314906.546665zm23.448029-15.051429-.00654-26.710246-23.1696201 13.412507.0413424 26.707376z" fill="#fff"/></g><g transform="translate(0 35.58464)"><path d="m.77278718 129.428662-.05658217-40.8697464c-.03122245-22.5522211 11.96325999-43.4104341 31.47067179-54.7269944l57.1271057-33.14034394 24.4600935 14.12138794-61.7554833 35.6591601c-16.6156075 9.5942671-26.8489501 27.3255873-26.8437924 46.5122583l.0125128 46.5469574z" fill="#1c242e"/><path d="m24.5553389 142.4368-.0122185-45.4522466c-.0052185-19.4123965 10.3485164-37.3523205 27.1596016-47.0594614l60.808034-35.1120787-23.1960102-13.39160255-56.8108963 32.95690585c-19.3123377 11.2033947-31.18687532 31.8530256-31.15596509 54.1797245l.05607819 40.5057179zm-24.41423112-13.007264-.05658217-40.8697459c-.03153468-22.7777433 12.08289259-43.8445384 31.78537849-55.2742643l57.1271057-33.14034396c.1956088-.1134758.4369559-.11372823.6328017-.00066185l24.4600935 14.12138791c.421116.2431203.42114.8509382.000042 1.0940905l-61.7554837 35.6591601c-16.4201297 9.4813934-26.5330801 27.0041098-26.527983 45.9650553l.0125128 46.5469572c.0001308.486403-.5264513.790445-.9476367.547154l-24.41452593-14.10268c-.19510619-.1127-.31541075-.320792-.31572269-.546109z" fill="#fff"/><path d="m25.1873062 143.505628-.0125059-46.5212444c-.0051577-19.186671 10.2281849-36.9179912 26.8437924-46.5122583l61.6321433-35.5879404.122375-.05874-.021642 28.1787291-50.9571663 29.438293c-8.1354842 4.6999232-13.1486895 13.3801637-13.1539052 22.7756602l-.0189669 34.1665558-24.4117039 14.160629z" fill="#343b44"/><path d="m25.8187057 142.461795 23.1712468-13.44107.0187651-33.8029485c.0053409-9.6209884 5.1388631-18.5095546 13.4695989-23.322276l50.6417525-29.2560764.02053-26.7312483-60.8061357 35.1109827c-16.4201297 9.4813934-26.5330801 27.0041098-26.527983 45.9650553zm88.1479013-127.0305769-.315871-.5470332.273349.5694736.021688-.0104105zm-88.2069079 127.8033689-.0224205-.039684-.5499724.310725.092703-.000025zm-1.2040728.271211-.0125059-46.5212446c-.0052185-19.4123965 10.3485164-37.3523205 27.1596016-47.0594614l61.632144-35.5879403c.013884-.0080171.028068-.0155026.042522-.0224404l.122374-.05874c.419523-.201372.905386.1046092.905028.5699587l-.021641 28.1787291c-.000174.2254439-.120484.4337073-.315694.5464814l-50.9571661 29.438293c-7.9402326 4.5871251-12.833121 13.0590398-12.8382115 22.2290443l-.0189669 34.1665562c-.000125.225092-.1200189.433111-.3147238.546054l-24.4117039 14.160629c-.3041995.176458-.6939388.070505-.8669284-.23568l-.0224205-.039684c-.0535331-.094751-.0816784-.201726-.0817076-.310555z" fill="#fff"/></g><path d="m32.1868768 69.4165616c-2.4664568 1.4308309-4.8128097 3.0141974-7.0299373 4.7342374l.0000001-45.0397323 24.4198547-14.3274816-.0371327 44.5663496z" fill="#343b44"/><path d="m89.310686 168.169188 24.396572-14.140988-.006897-28.169576-24.4332761 14.144016z" fill="#343b44"/><g fill="#fff"><path d="m31.8699041 68.8701662 17.0383806-9.884236.03591-43.098813-23.1555751 13.5857105-.0000011 43.4046915c1.9445582-1.4469969 3.9742054-2.7850022 6.0812856-4.007353zm.6339454 1.0927908c-2.4290188 1.4091125-4.752974 2.9749587-6.9597124 4.6869388-.4150369.3219843-1.0188776.0261931-1.0188776-.4990968l.0000001-45.0397323c0-.2240997.1187337-.4314238.3120213-.5448284l24.4198548-14.3274816c.4213067-.2471867.9517454.0568872.9513384.5453547l-.0371327 44.5663496c-.0001875.225022-.1200658.4329546-.3147071.5458691z"/><path d="m89.62746 168.715699c-.420743.243875-.9477005-.059221-.9484533-.545533l-.0436011-28.166548c-.0003495-.225767.1198203-.434557.3152109-.547666l24.4332765-14.144015c.42106-.243745.948029.060011.948148.546533l.006897 28.169575c.000055.225347-.119942.433659-.314906.546665zm23.448029-15.051429-.00654-26.710246-23.1696201 13.412507.0413424 26.707376z"/></g></g></g></svg>