<?xml version="1.0" encoding="UTF-8"?>
<svg width="118px" height="112px" viewBox="0 0 118 112" version="1.1" xmlns="http://www.w3.org/2000/svg" xmlns:xlink="http://www.w3.org/1999/xlink">
    <!-- Generator: Sketch 52.3 (67297) - http://www.bohemiancoding.com/sketch -->
    <title>Group 6</title>
    <desc>Created with Sketch.</desc>
    <g id="首页" stroke="none" stroke-width="1" fill="none" fill-rule="evenodd">
        <g id="01-1-logo" transform="translate(-126.000000, -630.000000)" fill="#F56A00" fill-rule="nonzero">
            <g id="QKL123" transform="translate(126.000000, 630.000000)">
                <g id="Group-6">
                    <path d="M104.38759,82.9790638 L117.966304,112 L90.6771306,112 L76.8865031,82.5261551 C84.808904,76.3780184 89.9047619,66.7820926 89.9047619,56 C89.9047619,37.4432324 74.810362,22.4 56.1904762,22.4 C37.5705903,22.4 22.4761905,37.4432324 22.4761905,56 C22.4761905,74.5567676 37.5705903,89.6 56.1904762,89.6 C59.5641072,89.6 62.8220044,89.1061645 65.8953574,88.1870707 L77.0372779,112 L55.6285714,112 C24.9057598,112 0,86.927946 0,56 C0,25.072054 24.9057598,0 55.6285714,0 C86.3513831,0 111.257143,25.072054 111.257143,56 C111.257143,65.7813648 108.766012,74.9770099 104.38759,82.9790638 Z" id="Combined-Shape"></path>
                    <path d="M30.9058328,53.7820561 C30.9173616,38.3154215 43.5032165,25.7678908 59.0171264,25.7563619 C62.1199084,25.7540562 64.6333409,28.2598239 64.6310352,31.3531508 C64.6287294,34.4464778 62.1115584,36.9559839 59.0087764,36.9582897 C49.7004305,36.965207 42.1489176,44.4937254 42.1420003,53.7737062 C42.1396945,56.8670331 39.6225236,59.3765392 36.5197416,59.378845 C33.4169596,59.3811508 30.903527,56.875383 30.9058328,53.7820561 Z" id="Combined-Shape" transform="translate(47.768434, 42.567603) rotate(13.000000) translate(-47.768434, -42.567603) "></path>
                </g>
            </g>
        </g>
    </g>
</svg>